<?xml version="1.0" encoding="utf-8"?>
<!-- Generator: Adobe Illustrator 13.0.0, SVG Export Plug-In . SVG Version: 6.00 Build 14948)  -->
<!DOCTYPE svg PUBLIC "-//W3C//DTD SVG 1.1//EN" "http://www.w3.org/Graphics/SVG/1.1/DTD/svg11.dtd">
<svg version="1.1" id="Layer_1" xmlns="http://www.w3.org/2000/svg" xmlns:xlink="http://www.w3.org/1999/xlink" x="0px" y="0px"
	 width="1587.777px" height="270.201px" viewBox="0 0 1587.777 270.201" enable-background="new 0 0 1587.777 270.201"
	 xml:space="preserve">
<g>
	<g>
		<path fill="#005E9D" d="M924.482,266.544V158.707h-30.768v107.838h-51.787V0h51.787v106.62h30.768V0h51.789v266.544H924.482z"/>
		<path fill="#005E9D" d="M1033.006,188.56c-0.303,38.688,6.398,44.172,20.412,44.172c13.102,0,17.672-9.141,16.453-24.07
			l-0.609-7.002l41.73,1.215c0.607,3.355,0.914,7.926,0.914,13.1c0,30.162-14.926,54.227-57.879,54.227
			c-42.039,0-69.455-15.539-69.455-88.648c0-67.323,23.148-95.349,65.494-95.349c38.08,0,55.75,25.59,60.012,69.457
			c1.217,12.186,1.828,22.846,2.131,33.51L1033.006,188.56z M1050.066,121.234c-12.793,0-16.146,14.624-17.061,42.652h32.295
			C1063.473,130.07,1062.559,121.234,1050.066,121.234z"/>
		<path fill="#005E9D" d="M1241.127,163.257l-41.053,12.854c0-5.713,0.145-12.225,0.145-21.365c0-16.145-4.57-21.629-12.793-21.629
			c-12.793,0-16.145,21.629-16.145,45.698v87.73h-48.131V91.687h47.217c0,0,0.609,21.021,0.609,31.684l2.133-6.093
			c5.176-14.93,16.447-28.941,32.9-28.941c24.674,0,36.248,14.319,36.248,45.086C1242.258,149.261,1242.08,144.695,1241.127,163.257
			z"/>
		<path fill="#005E9D" d="M1359.668,270.201c-24.369,0-27.416-9.445-30.766-22.541l-2.742,5.484
			c-3.963,7.916-15.844,17.057-35.338,17.057c-33.812,0-46-26.502-46-52.697c0-29.246,13.406-46.613,43.564-52.703l18.279-3.963
			c18.58-3.961,22.236-8.529,22.236-23.15c0-16.453-6.705-22.543-19.191-22.543c-11.576,0-20.717,7.312-20.717,17.973
			c0,6.09,0.916,9.678,1.633,14.911l-38.553,12.375c-0.953-12.375-1.666-23.361-1.666-31.89c0-31.375,26.098-42.309,59.908-42.309
			c48.742,0,66.107,16.145,66.107,39.297v101.748c0,6.398,5.178,10.055,11.273,10.055c1.523,0,2.736-0.307,4.26-0.914v24.672
			C1387.393,264.412,1371.854,270.201,1359.668,270.201z M1328.902,179.728c-4.266,2.434-10.055,4.566-14.621,5.787
			c-17.365,4.873-21.324,10.961-21.324,26.504c0,15.229,3.654,24.064,15.232,24.064c11.268,0,20.713-4.266,20.713-38.688V179.728z"
			/>
		<path fill="#005E9D" d="M1398.945,266.544V0.726h48.131v265.819H1398.945z"/>
		<path fill="#005E9D" d="M1542.082,266.544v-22.541l-4.262,7.617c-5.184,9.744-14.928,17.666-29.551,17.666
			c-33.812,0-51.18-18.885-51.18-88.953c0-59.706,17.672-91.998,50.875-91.998c14.625,0,24.672,7.617,29.551,18.277l2.133,4.57
			V0.726h48.129v265.819H1542.082z M1534.164,136.164c-2.742-7.309-6.398-11.578-13.707-11.578c-9.75,0-15.232,14.621-15.232,54.531
			c0,47.217,8.225,53.004,16.754,53.004c10.658,0,17.057-10.662,17.057-52.701C1539.035,156.876,1537.516,145.605,1534.164,136.164z
			"/>
	</g>
	<g>
		<path fill="#005E9D" d="M84.642,266.603H0V0.061h72.461c39.979,0,57.783,31.928,57.783,73.23c0,29.152-9.37,46.851-25.612,53.443
			c18.741,6.25,31.547,26.031,31.547,64.554C136.179,246.47,117.127,266.603,84.642,266.603z M60.905,44.484H49.974v61.082H61.53
			c11.244,0,16.241-9.72,16.241-27.42C77.771,58.712,73.398,44.484,60.905,44.484z M61.218,149.642H49.974v71.494h11.868
			c11.869,0,20.302-6.945,20.302-35.053C82.144,167.691,76.521,149.642,61.218,149.642z"/>
		<path fill="#005E9D" d="M210.684,269.339c-48.674,0-65.709-25.859-65.709-87.309c0-65.409,20.988-95.523,63.276-95.523
			c50.497,0,64.794,31.332,64.794,91.57C273.045,237.398,261.487,269.339,210.684,269.339z M208.857,122.707
			c-12.776,0-14.297,11.256-14.297,58.105c0,44.721,3.956,49.285,14.297,49.285c10.951,0,14.603-4.869,14.603-49.285
			C223.46,133.658,221.331,122.707,208.857,122.707z"/>
		<path fill="#005E9D" d="M339.898,269.642c-42.897,0-60.843-15.516-60.843-44.109c0-7.604,1.521-15.213,3.648-21.6l36.812,2.434
			c-0.914,4.26-1.219,7.604-1.219,11.252c0,12.783,5.477,20.084,18.253,20.084c14.603,0,17.644-11.562,17.644-18.256
			c0-9.127-4.867-14.297-17.948-20.381l-18.862-8.82c-15.209-7-37.721-20.082-37.721-52.326c0-33.161,28.291-51.412,61.45-51.412
			c31.944,0,56.888,13.384,56.888,43.197c0,6.386-0.911,10.953-2.739,15.82l-36.199-0.607c1.216-3.654,1.521-6.393,1.521-12.169
			c0-9.734-6.389-14.908-16.431-14.908c-10.339,0-15.206,6.389-15.206,15.517c0,10.038,7.3,14.602,19.165,19.772l23.425,10.039
			c19.772,8.52,34.983,20.383,34.983,50.803C406.519,250.783,389.177,269.642,339.898,269.642z"/>
		<path fill="#005E9D" d="M470.633,269.035c-24.946,0-41.374-9.127-41.072-36.504l0.612-107.693h-25.86V91.983h26.467l1.214-48.067
			h45.635v48.067h36.507v32.854h-36.507v88.224c0,13.688,12.17,15.207,21.6,15.207c7.604,0,12.776-1.52,17.644-3.65v34.375
			C510.785,263.253,489.188,269.035,470.633,269.035z"/>
		<path fill="#005E9D" d="M585.667,269.339c-48.674,0-65.711-25.859-65.711-87.309c0-65.409,20.991-95.523,63.276-95.523
			c50.494,0,64.797,31.332,64.797,91.57C648.029,237.398,636.468,269.339,585.667,269.339z M583.839,122.707
			c-12.773,0-14.297,11.256-14.297,58.105c0,44.721,3.956,49.285,14.297,49.285c10.949,0,14.603-4.869,14.603-49.285
			C598.441,133.658,596.312,122.707,583.839,122.707z"/>
		<path fill="#005E9D" d="M738.605,266.603V143.091c0-7.91-3.648-12.777-11.865-12.777c-11.253,0-18.861,14.296-18.861,36.81v99.479
			h-48.065V91.983h47.76v28.29c5.479-19.772,19.775-31.638,40.157-31.638c19.774,0,38.939,12.779,38.939,41.069v136.898H738.605z"/>
	</g>
</g>
</svg>
