<?xml version="1.0" encoding="UTF-8" standalone="no"?>
<!-- Created with Inkscape (http://www.inkscape.org/) -->

<svg
   width="264.58331mm"
   height="200.94014mm"
   viewBox="0 0 264.58331 200.94014"
   version="1.1"
   id="svg1"
   xml:space="preserve"
   xmlns="http://www.w3.org/2000/svg"
   xmlns:svg="http://www.w3.org/2000/svg"><defs
     id="defs1" /><g
     id="g4"
     transform="matrix(2.4958465,0,0,2.4958465,-635.14761,-1868.1166)"
     style="fill:#000000;fill-opacity:1"><path
       d="m 295.0418,824.13377 c -1.31366,1.1214 -2.15016,1.75467 -4.04483,1.75467 h -0.0799 c -2.60808,0 -4.22275,-2.02498 -4.22275,-3.89982 0,-2.15015 1.90225,-3.89981 4.23792,-3.89981 1.88183,0.0175 2.87817,1.02626 3.3565,1.51437 l 0.0752,0.0751 2.19742,-2.19522 c -0.245,-0.2453 -2.11984,-2.48056 -5.607,-2.48056 -4.01509,0 -7.34895,3.04877 -7.36651,6.97114 0,3.80719 3.20151,7.00864 7.32917,7.02619 3.10625,0 4.67834,-1.2691 6.13725,-2.51813 z"
       fill="#000000"
       id="path7-5"
       style="fill:#000000;fill-opacity:1;stroke-width:0.583333" /><path
       d="m 282.37898,824.45922 c 0,3.61695 -2.89608,4.18518 -4.70832,4.18518 h -7.72957 v -13.29648 h 7.72205 c 2.36792,0 4.26025,1.34417 4.26025,3.86478 0,1.24654 -0.87855,1.93487 -1.54688,2.27531 1.10133,0.55066 2.00247,1.36418 2.00247,2.97121 z m -9.61188,-6.61571 v 2.51561 c 0,0 4.05749,0 4.55811,0 0.75343,0 1.57943,-0.31289 1.57943,-1.24905 0,-0.93615 -0.6433,-1.26656 -1.68455,-1.26656 -0.59325,0 -4.45299,0 -4.45299,0 z m 6.60818,6.61571 c 0,-1.27663 -1.06383,-1.60703 -2.09761,-1.60703 -0.92867,0 -4.51057,0 -4.51057,0 v 3.17643 c 0,0 3.77714,0 4.61819,0 0.84105,0 1.98999,-0.29284 1.98999,-1.5694 z"
       fill="#000000"
       id="path8-1"
       style="fill:#000000;fill-opacity:1;stroke-width:0.583333" /><path
       d="m 254.99999,815.34792 h 3.11885 l 6.42046,8.60065 v -8.60065 h 2.92361 v 13.29648 h -3.11885 l -6.42297,-8.61819 v 8.61819 h -2.9211 z"
       fill="#000000"
       id="path9-7"
       style="fill:#000000;fill-opacity:1;stroke-width:0.583333" /><path
       d="m 328.31397,825.84842 v 2.79843 h -11.3015 v -13.29644 h 11.13875 v 2.6658 h -8.30783 v 2.3429 h 7.11375 v 2.6633 h -7.11375 v 2.81598 z"
       fill="#000000"
       id="path10-1"
       style="fill:#000000;fill-opacity:1;stroke-width:0.583333" /><path
       d="m 302.07797,815.34792 h 3.11908 l 6.42017,8.60065 v -8.60065 h 2.92367 v 13.29648 h -3.11909 l -6.4225,-8.61819 v 8.61819 h -2.92133 z"
       fill="#000000"
       id="path11-1"
       style="fill:#000000;fill-opacity:1;stroke-width:0.583333" /><path
       d="m 345.07605,815.35041 -2.443,8.66571 -2.51533,-8.66571 h -3.02633 l -2.513,8.66571 -2.44592,-8.66571 h -2.76325 l 3.647,13.29644 h 2.97383 l 2.61567,-8.37535 2.61333,8.37535 h 2.97617 l 3.647,-13.29644 z"
       fill="#000000"
       id="path12-5"
       style="fill:#000000;fill-opacity:1;stroke-width:0.583333" /><path
       d="m 357.90997,821.15008 c -2.23533,-0.94864 -6.2125,-0.22773 -6.18508,-2.04501 0.01,-0.70336 1.03658,-1.30911 2.681,-1.32163 1.84975,-0.015 4.19241,0.9687 4.19241,0.9687 l 1.48925,-2.36542 c 0,0 -3.02866,-1.38672 -5.6315,-1.38672 -3.97016,0 -5.84266,1.74966 -5.84266,3.93236 0,2.2403 1.25416,3.12889 1.93491,3.45929 2.20792,1.0738 4.68067,0.78097 6.01534,1.44678 1.45891,0.72841 0.88083,2.47054 -2.10759,2.22524 -2.198,-0.18019 -3.49708,-0.61827 -5.07908,-1.5519 l -1.62692,2.28282 c 3.0765,1.89986 6.04217,2.20022 6.70834,2.20523 2.32283,0.0125 6.09,-0.60322 6.03225,-4.42295 -0.0251,-1.56193 -0.78109,-2.66332 -2.58067,-3.42679 z"
       fill="#000000"
       id="path13-2"
       style="fill:#000000;fill-opacity:1;stroke-width:0.583333" /></g><g
     id="g6"
     transform="matrix(0.33596843,0,0,0.33596843,-56.945621,-58.2229)"><path
       d="M 731.77923,285.30829 617.83996,545.57384 585.32352,319.38551 c -4.16277,-30.69495 48.12443,-49.68535 48.12443,-49.68535 -4.81198,-10.66503 -21.32996,-10.40594 -21.32996,-10.40594 h -35.37893 c -5.59251,-55.66794 44.87335,-96.11954 99.37227,-83.76258 53.58737,11.96518 73.09742,70.23658 55.6679,109.77665 z"
       fill="#6e55dc"
       id="path1"
       style="fill:#6f55dc;fill-opacity:1;stroke-width:15.6081" /><path
       d="M 520.15802,629.85775 298.00286,481.83954 c -56.57945,-37.7185 -112.50811,0.78052 -124.34379,40.45168 -17.42952,58.65997 21.72029,107.56653 83.11174,107.56653 z"
       fill="#fccc12"
       id="path2-8"
       style="fill:#fccc12;fill-opacity:1;stroke-width:15.6081" /><path
       d="m 549.28284,262.93559 c 8.19414,-57.48941 -43.3126,-100.02156 -98.98064,-87.40551 -53.58895,11.96674 -73.099,70.23657 -55.66949,109.77821 l 113.9394,260.26397 40.71073,-282.76623 z"
       fill="#ef1541"
       id="path3-9"
       style="fill:#ee1540;fill-opacity:1;stroke-width:15.6081" /><path
       d="M 499.46793,588.36507 390.08147,339.02521 c -25.62391,-57.75007 -93.38972,-64.90327 -130.84931,-31.08671 -26.40271,23.93352 -46.8243,88.96634 12.09643,128.37688 z"
       fill="#ff7112"
       id="path4-7"
       style="fill:#ff7113;fill-opacity:1;stroke-width:15.6081" /><path
       d="m 869.65209,629.85775 c 61.52249,0 100.54285,-48.90495 83.11334,-107.56495 -11.83569,-39.80074 -67.76594,-78.30133 -124.34537,-40.45169 L 606.26489,629.85775 Z"
       fill="#05ac3f"
       id="path5-3"
       style="fill:#05ad40;fill-opacity:1;stroke-width:15.6081" /><path
       d="M 855.08191,436.31538 C 914.0025,396.90484 893.58249,331.87202 867.17823,307.9385 829.71876,274.12194 761.95443,281.27514 736.33063,339.02521 L 626.94418,588.36507 Z"
       fill="#069de0"
       id="path6"
       style="fill:#059de0;fill-opacity:1;stroke-width:15.6081" /></g></svg>
